<svg width="40" height="35" viewBox="0 0 40 35" fill="none" xmlns="http://www.w3.org/2000/svg">
<path d="M40 17.5C40 18.5954 39.1385 19.4844 38.077 19.4844H6.48274L17.9162 31.5938C18.1002 31.7786 18.2465 31.9997 18.3463 32.2438C18.4462 32.4879 18.4977 32.7502 18.4978 33.0152C18.4978 33.2802 18.4464 33.5426 18.3466 33.7867C18.2468 34.0309 18.1007 34.252 17.9167 34.4369C17.7328 34.6219 17.5148 34.7669 17.2757 34.8635C17.0365 34.9601 16.781 35.0063 16.5243 34.9993C16.2676 34.9924 16.0148 34.9324 15.7809 34.823C15.547 34.7136 15.3367 34.557 15.1624 34.3624L0.552182 18.8891C0.198367 18.5189 0 18.0199 0 17.5C0 16.9801 0.198367 16.4811 0.552182 16.1109L15.1624 0.63763C15.3367 0.443001 15.547 0.286366 15.7809 0.176968C16.0148 0.0675735 16.2676 0.00763321 16.5243 0.000682831C16.781 -0.00626755 17.0365 0.0399132 17.2757 0.136501C17.5148 0.233089 17.7328 0.378132 17.9167 0.563065C18.1007 0.747993 18.2468 0.96907 18.3466 1.21325C18.4464 1.45742 18.4978 1.71975 18.4978 1.98476C18.4977 2.24976 18.4462 2.51207 18.3463 2.75621C18.2465 3.00035 18.1002 3.22136 17.9162 3.40622L6.48274 15.5156H38.077C39.1385 15.5156 40 16.4046 40 17.5Z" fill="white"/>
</svg>
